<?xml version="1.0" encoding="UTF-8"?>
<svg viewbox="0 0 1600 718" xmlns="http://www.w3.org/2000/svg"><style>
                text { font-family: -apple-system, BlinkMacSystemFont, 'Segoe UI', sans-serif; }
                text[fill="#7e8fa6"] { fill: #b0bec5; }
            </style>
<defs>
<marker id="ah6" markerheight="13" markerwidth="13" orient="auto" refx="9" refy="5">
<path d="M0,0 L10,5 L0,10 Z" fill="#4FACFE"></path>
</marker>
</defs>
<!-- 顶部管线 -->
<g font-size="21" text-anchor="middle">
<rect fill="#33251A" height="80" rx="14" stroke="#FB923C" width="200" x="60" y="70"></rect>
<text fill="#FB923C" font-weight="700" x="160" y="118">Intent</text>
<rect fill="#1C2A42" height="80" rx="14" stroke="#2E4060" width="200" x="330" y="70"></rect>
<text fill="#EAF0F6" x="430" y="118">Compile</text>
<rect fill="#173049" height="80" rx="14" stroke="#4FACFE" width="200" x="600" y="70"></rect>
<text fill="#4FACFE" font-weight="700" x="700" y="118">SQG</text>
<rect fill="#1C2A42" height="80" rx="14" stroke="#2E4060" width="200" x="870" y="70"></rect>
<text fill="#EAF0F6" x="970" y="118">Plan</text>
<rect fill="#1C2A42" height="80" rx="14" stroke="#2E4060" width="180" x="1140" y="70"></rect>
<text fill="#EAF0F6" x="1230" y="118">Resolve</text>
<rect fill="#16302A" height="80" rx="14" stroke="#34D399" width="150" x="1390" y="70"></rect>
<text fill="#34D399" font-weight="700" x="1465" y="118">Fuse</text>
</g>
<g fill="none" stroke="#4FACFE" stroke-width="2">
<line marker-end="url(#ah6)" x1="262" x2="326" y1="110" y2="110"></line>
<line marker-end="url(#ah6)" x1="532" x2="596" y1="110" y2="110"></line>
<line marker-end="url(#ah6)" x1="802" x2="866" y1="110" y2="110"></line>
<line marker-end="url(#ah6)" x1="1072" x2="1136" y1="110" y2="110"></line>
<line marker-end="url(#ah6)" x1="1322" x2="1386" y1="110" y2="110"></line>
</g>
<!-- 算子代数 -->
<text fill="#EAF0F6" font-size="24" font-weight="700" text-anchor="middle" x="800" y="230">SQG 算子代数（正交、极小集合）</text>
<g font-size="20">
<rect fill="#1C2A42" height="90" rx="12" stroke="#2E4060" width="440" x="90" y="270"></rect>
<text fill="#4FACFE" font-weight="700" x="115" y="308">SELECT / PROJECT</text>
<text fill="#B0BEC5" x="115" y="340">取概念的属性</text>
<rect fill="#1C2A42" height="90" rx="12" stroke="#2E4060" width="440" x="580" y="270"></rect>
<text fill="#4FACFE" font-weight="700" x="605" y="308">FILTER</text>
<text fill="#B0BEC5" x="605" y="340">维度约束</text>
<rect fill="#1C2A42" height="90" rx="12" stroke="#2E4060" width="440" x="1070" y="270"></rect>
<text fill="#4FACFE" font-weight="700" x="1095" y="308">AGGREGATE</text>
<text fill="#B0BEC5" x="1095" y="340">指标计算</text>
<rect fill="#1C2A42" height="90" rx="12" stroke="#2E4060" width="440" x="90" y="380"></rect>
<text fill="#4FACFE" font-weight="700" x="115" y="418">TRAVERSE</text>
<text fill="#B0BEC5" x="115" y="450">沿关系跳转 · 天然跨源 join</text>
<rect fill="#33251A" height="90" rx="12" stroke="#FB923C" width="440" x="580" y="380"></rect>
<text fill="#FB923C" font-weight="700" x="605" y="418">ASK ★</text>
<text fill="#B0BEC5" x="605" y="450">把子图交给 agentic Resolver 回答</text>
<rect fill="#251C3A" height="90" rx="12" stroke="#A78BFA" width="440" x="1070" y="380"></rect>
<text fill="#A78BFA" font-weight="700" x="1095" y="418">ACT ★</text>
<text fill="#B0BEC5" x="1095" y="450">执行动作 / 写回</text>
</g>
<rect fill="#1a2436" height="120" rx="14" stroke="#2E4060" width="1420" x="90" y="520"></rect>
<text fill="#EAF0F6" font-size="23" font-weight="700" text-anchor="middle" x="800" y="568">因为「问答 = ASK、跨源 join = TRAVERSE、写回 = ACT」都是同级算子</text>
<text fill="#FB923C" font-size="22" text-anchor="middle" x="800" y="608">「分析平台」和「行动平台」在这里是同一件事</text>
</svg>