<?xml version="1.0" encoding="UTF-8"?>
<svg viewbox="0 0 1600 718" xmlns="http://www.w3.org/2000/svg"><style>
                text { font-family: -apple-system, BlinkMacSystemFont, 'Segoe UI', sans-serif; }
                text[fill="#7e8fa6"] { fill: #b0bec5; }
            </style>
<defs>
<marker id="ah9" markerheight="13" markerwidth="13" orient="auto" refx="9" refy="5">
<path d="M0,0 L10,5 L0,10 Z" fill="#556072"></path>
</marker>
</defs>
<!-- 问题→SQG -->
<rect fill="#173049" height="72" rx="14" stroke="#4FACFE" width="600" x="500" y="40"></rect>
<text fill="#4FACFE" font-size="23" font-weight="700" text-anchor="middle" x="800" y="85">SQG：Metric=毛利 · Filter=华东/上季度 · ASK 归因 · ACT 派任</text>
<!-- 四个中标 Resolver -->
<g stroke="#3A4A63" stroke-width="2">
<line marker-end="url(#ah9)" x1="800" x2="230" y1="112" y2="200"></line>
<line marker-end="url(#ah9)" x1="800" x2="610" y1="112" y2="200"></line>
<line marker-end="url(#ah9)" x1="800" x2="990" y1="112" y2="200"></line>
<line marker-end="url(#ah9)" x1="800" x2="1370" y1="112" y2="200"></line>
</g>
<g font-size="19">
<rect fill="#1C2A42" height="180" rx="14" stroke="#4FACFE" width="340" x="60" y="205"></rect>
<text fill="#4FACFE" font-size="22" font-weight="700" x="85" y="245">数仓 fetch</text>
<text fill="#EAF0F6" x="85" y="285">毛利数值</text>
<text fill="#B0BEC5" x="85" y="322">确定 · 便宜</text>
<text fill="#34D399" x="85" y="360">信任 0.98 · 中标</text>
<rect fill="#33251A" height="180" rx="14" stroke="#FB923C" width="340" x="440" y="205"></rect>
<text fill="#FB923C" font-size="22" font-weight="700" x="465" y="245">Data Agent ask</text>
<text fill="#EAF0F6" x="465" y="285">"为何下滑"归因</text>
<text fill="#B0BEC5" x="465" y="322">主动 · 挂证据</text>
<text fill="#34D399" x="465" y="360">信任 0.82 · 中标</text>
<rect fill="#16302A" height="180" rx="14" stroke="#34D399" width="340" x="820" y="205"></rect>
<text fill="#34D399" font-size="22" font-weight="700" x="845" y="245">知识库 fetch</text>
<text fill="#EAF0F6" x="845" y="285">佐证材料</text>
<text fill="#B0BEC5" x="845" y="322">RAG 召回</text>
<text fill="#34D399" x="845" y="360">信任 0.75 · 中标</text>
<rect fill="#251C3A" height="180" rx="14" stroke="#A78BFA" width="340" x="1200" y="205"></rect>
<text fill="#A78BFA" font-size="22" font-weight="700" x="1225" y="245">动作 act</text>
<text fill="#EAF0F6" x="1225" y="285">派复盘任务</text>
<text fill="#B0BEC5" x="1225" y="322">写回工单</text>
<text fill="#A78BFA" x="1225" y="360">返回回执</text>
</g>
<!-- 融合 -->
<g fill="none" stroke="#34D399" stroke-width="2">
<line marker-end="url(#ah9)" x1="230" x2="740" y1="385" y2="460"></line>
<line marker-end="url(#ah9)" x1="610" x2="770" y1="385" y2="460"></line>
<line marker-end="url(#ah9)" x1="990" x2="830" y1="385" y2="460"></line>
<line marker-end="url(#ah9)" x1="1370" x2="860" y1="385" y2="460"></line>
</g>
<rect fill="#16302A" height="80" rx="14" stroke="#34D399" width="480" x="560" y="465"></rect>
<text fill="#34D399" font-size="23" font-weight="700" text-anchor="middle" x="800" y="513">Fuse · 冲突裁决（按信任分）</text>
<line fill="none" marker-end="url(#ah9)" stroke="#34D399" stroke-width="2" x1="800" x2="800" y1="545" y2="590"></line>
<rect fill="#173049" height="90" rx="14" stroke="#4FACFE" width="840" x="380" y="595"></rect>
<text fill="#4FACFE" font-size="23" font-weight="700" text-anchor="middle" x="800" y="635">输出：说明 + 趋势图 + 血缘 + 派任回执</text>
<text fill="#B0BEC5" font-size="18" text-anchor="middle" x="800" y="668">全程无「针对 PowerBI / 针对 Agent / 针对写回」的特殊分支 —— 皆 SQG 算子 + Resolver 竞标</text>
</svg>