<?xml version="1.0" encoding="UTF-8"?>
<svg viewbox="0 0 1600 718" xmlns="http://www.w3.org/2000/svg"><style>
                text { font-family: -apple-system, BlinkMacSystemFont, 'Segoe UI', sans-serif; }
                text[fill="#7e8fa6"] { fill: #b0bec5; }
            </style>
<defs>
<marker id="ah4" markerheight="12" markerwidth="12" orient="auto" refx="9" refy="5">
<path d="M0,0 L10,5 L0,10 Z" fill="#556072"></path>
</marker>
</defs>
<!-- 连线 -->
<g stroke="#3A4A63" stroke-width="2">
<line x1="800" x2="800" y1="359" y2="150"></line>
<line x1="800" x2="1210" y1="359" y2="255"></line>
<line x1="800" x2="1150" y1="359" y2="560"></line>
<line x1="800" x2="450" y1="359" y2="560"></line>
<line x1="800" x2="390" y1="359" y2="255"></line>
</g>
<!-- 中心 -->
<polygon fill="#1C2A42" points="800,239 918,309 918,449 800,519 682,449 682,309" stroke="#4FACFE" stroke-width="3"></polygon>
<text fill="#EAF0F6" font-size="28" font-weight="700" text-anchor="middle" x="800" y="352">统一语义图</text>
<text fill="#4FACFE" font-size="20" text-anchor="middle" x="800" y="388">One Graph · 自描述</text>
<!-- 5 子图 -->
<g>
<rect fill="#173049" height="96" rx="14" stroke="#4FACFE" width="360" x="620" y="60"></rect>
<text fill="#4FACFE" font-size="24" font-weight="700" text-anchor="middle" x="800" y="100">Meaning 意义子图</text>
<text fill="#B0BEC5" font-size="19" text-anchor="middle" x="800" y="132">概念 / 指标 / 关系</text>
</g>
<g>
<rect fill="#12303A" height="96" rx="14" stroke="#22D3EE" width="360" x="1130" y="200"></rect>
<text fill="#22D3EE" font-size="24" font-weight="700" text-anchor="middle" x="1310" y="240">Instance 实例子图</text>
<text fill="#B0BEC5" font-size="19" text-anchor="middle" x="1310" y="272">实体实例 / 事实数据</text>
</g>
<g>
<rect fill="#251C3A" height="96" rx="14" stroke="#A78BFA" width="360" x="1080" y="512"></rect>
<text fill="#A78BFA" font-size="24" font-weight="700" text-anchor="middle" x="1260" y="552">Provenance 血缘子图</text>
<text fill="#B0BEC5" font-size="19" text-anchor="middle" x="1260" y="584">来源 / 时效 / 审计</text>
</g>
<g>
<rect fill="#16302A" height="96" rx="14" stroke="#34D399" width="360" x="270" y="512"></rect>
<text fill="#34D399" font-size="24" font-weight="700" text-anchor="middle" x="450" y="552">Access 访问子图</text>
<text fill="#B0BEC5" font-size="19" text-anchor="middle" x="450" y="584">身份 / 策略 / 权限</text>
</g>
<g>
<rect fill="#33251A" height="96" rx="14" stroke="#FB923C" width="360" x="210" y="200"></rect>
<text fill="#FB923C" font-size="24" font-weight="700" text-anchor="middle" x="390" y="240">Resolver 能力子图</text>
<text fill="#B0BEC5" font-size="19" text-anchor="middle" x="390" y="272">源与 Agent 能力声明</text>
</g>
<text fill="#B0BEC5" font-size="21" text-anchor="middle" x="800" y="668">查数据 · 查血缘 · 查权限 · 查哪个源能答 —— 都是同一种图查询，不需五套 API</text>
</svg>