<?xml version="1.0" encoding="UTF-8"?>
<svg viewbox="0 0 1600 718" xmlns="http://www.w3.org/2000/svg"><style>
                text { font-family: -apple-system, BlinkMacSystemFont, 'Segoe UI', sans-serif; }
                text[fill="#7e8fa6"] { fill: #b0bec5; }
            </style>
<defs>
<marker id="ah" markerheight="14" markerwidth="14" orient="auto" refx="10" refy="5">
<path d="M0,0 L11,5 L0,10 Z" fill="#4FACFE"></path>
</marker>
</defs>
<!-- 左侧异构源 -->
<g fill="#EAF0F6" font-size="22">
<g>
<rect fill="#1C2A42" height="60" rx="12" stroke="#2E4060" width="420" x="60" y="70"></rect>
<rect fill="#4FACFE" height="60" rx="3" width="6" x="60" y="70"></rect>
<text x="100" y="107">数据库 SQL / PG</text>
</g>
<g>
<rect fill="#1C2A42" height="60" rx="12" stroke="#2E4060" width="420" x="60" y="158"></rect>
<rect fill="#22D3EE" height="60" rx="3" width="6" x="60" y="158"></rect>
<text x="100" y="195">文件 CSV / Excel / Parquet</text>
</g>
<g>
<rect fill="#1C2A42" height="60" rx="12" stroke="#2E4060" width="420" x="60" y="246"></rect>
<rect fill="#34D399" height="60" rx="3" width="6" x="60" y="246"></rect>
<text x="100" y="283">知识库 / 向量库 RAG</text>
</g>
<g>
<rect fill="#1C2A42" height="60" rx="12" stroke="#2E4060" width="420" x="60" y="334"></rect>
<rect fill="#A78BFA" height="60" rx="3" width="6" x="60" y="334"></rect>
<text x="100" y="371">REST / SaaS API</text>
</g>
<g>
<rect fill="#243349" height="60" rx="12" stroke="#FB923C" width="420" x="60" y="422"></rect>
<rect fill="#FB923C" height="60" rx="3" width="6" x="60" y="422"></rect>
<text x="100" y="459">Fabric Data Agent</text>
</g>
<g>
<rect fill="#243349" height="60" rx="12" stroke="#FB923C" width="420" x="60" y="510"></rect>
<rect fill="#FB923C" height="60" rx="3" width="6" x="60" y="510"></rect>
<text x="100" y="547">MCP / 专家 Agent</text>
</g>
</g>
<!-- 汇聚箭头 -->
<g fill="none" opacity="0.8" stroke="#4FACFE" stroke-width="2">
<path d="M488,100 C600,140 620,300 700,330" marker-end="url(#ah)"></path>
<path d="M488,188 C600,220 640,320 700,345" marker-end="url(#ah)"></path>
<path d="M488,276 C600,300 660,330 700,352" marker-end="url(#ah)"></path>
<path d="M488,364 C600,360 660,360 700,362" marker-end="url(#ah)"></path>
<path d="M488,452 C600,420 660,390 700,375" marker-end="url(#ah)"></path>
<path d="M488,540 C600,480 640,410 700,388" marker-end="url(#ah)"></path>
</g>
<!-- 中心节点 -->
<circle cx="845" cy="359" fill="#1C2A42" r="150" stroke="#4FACFE" stroke-width="3"></circle>
<text fill="#EAF0F6" font-size="34" font-weight="700" text-anchor="middle" x="845" y="335">统一语义图</text>
<text fill="#4FACFE" font-size="26" text-anchor="middle" x="845" y="380">One Graph</text>
<text fill="#B0BEC5" font-size="18" text-anchor="middle" x="845" y="418">自描述 · 塌缩范式</text>
<!-- 中心→右 -->
<g fill="none" stroke="#34D399" stroke-width="2">
<path d="M995,320 C1080,240 1090,180 1140,170" marker-end="url(#ah)"></path>
<path d="M998,359 C1080,359 1090,359 1140,359" marker-end="url(#ah)"></path>
<path d="M995,398 C1080,478 1090,540 1140,548" marker-end="url(#ah)"></path>
</g>
<!-- 右侧三结论 -->
<g>
<rect fill="#1C2A42" height="118" rx="14" stroke="#2E4060" width="400" x="1150" y="110"></rect>
<rect fill="#4FACFE" height="6" rx="3" width="400" x="1150" y="110"></rect>
<text fill="#4FACFE" font-size="24" font-weight="700" x="1175" y="160">一张图</text>
<text fill="#B0BEC5" font-size="19" x="1175" y="196">schema / 数据 / 血缘 / 权限 同图</text>
</g>
<g>
<rect fill="#1C2A42" height="118" rx="14" stroke="#2E4060" width="400" x="1150" y="300"></rect>
<rect fill="#34D399" height="6" rx="3" width="400" x="1150" y="300"></rect>
<text fill="#34D399" font-size="24" font-weight="700" x="1175" y="350">一个协议 Resolver</text>
<text fill="#B0BEC5" font-size="19" x="1175" y="386">源 = Agent = 动作</text>
</g>
<g>
<rect fill="#1C2A42" height="118" rx="14" stroke="#2E4060" width="400" x="1150" y="490"></rect>
<rect fill="#FB923C" height="6" rx="3" width="400" x="1150" y="490"></rect>
<text fill="#FB923C" font-size="24" font-weight="700" x="1175" y="540">一种查询 SQG</text>
<text fill="#B0BEC5" font-size="19" x="1175" y="576">问答 = 计算 = 写回 = 动作</text>
</g>
</svg>