<?xml version="1.0" encoding="UTF-8"?>
<svg viewbox="0 0 1600 718" xmlns="http://www.w3.org/2000/svg"><style>
                text { font-family: -apple-system, BlinkMacSystemFont, 'Segoe UI', sans-serif; }
                text[fill="#7e8fa6"] { fill: #b0bec5; }
            </style>
<defs>
<marker id="ah10" markerheight="13" markerwidth="13" orient="auto" refx="9" refy="5">
<path d="M0,0 L10,5 L0,10 Z" fill="#4FACFE"></path>
</marker>
</defs>
<!-- 主轴 -->
<line stroke="#2E4060" stroke-width="4" x1="120" x2="1480" y1="360" y2="360"></line>
<g fill="none" stroke="#4FACFE" stroke-width="2">
<line x1="360" x2="360" y1="360" y2="360"></line>
</g>
<!-- 里程碑 -->
<g text-anchor="middle">
<!-- P0 -->
<circle cx="230" cy="360" fill="#4FACFE" r="22"></circle>
<text fill="#141E30" font-size="20" font-weight="700" x="230" y="368">P0</text>
<rect fill="#1C2A42" height="180" rx="14" stroke="#4FACFE" width="280" x="90" y="120"></rect>
<text fill="#4FACFE" font-size="22" font-weight="700" x="230" y="162">骨架</text>
<text fill="#EAF0F6" font-size="18" x="230" y="200">图 + Resolver 协议</text>
<text fill="#EAF0F6" font-size="18" x="230" y="228">+ SQG 编译器</text>
<text fill="#B0BEC5" font-size="16" x="230" y="270">一图 + 一 SQL 源问答</text>
<!-- P1 -->
<circle cx="530" cy="360" fill="#22D3EE" r="22"></circle>
<text fill="#141E30" font-size="20" font-weight="700" x="530" y="368">P1</text>
<rect fill="#1C2A42" height="170" rx="14" stroke="#22D3EE" width="280" x="390" y="420"></rect>
<text fill="#22D3EE" font-size="22" font-weight="700" x="530" y="462">联邦</text>
<text fill="#EAF0F6" font-size="18" x="530" y="500">加向量库 Resolver</text>
<text fill="#EAF0F6" font-size="18" x="530" y="528">+ 融合 / 裁决</text>
<text fill="#B0BEC5" font-size="16" x="530" y="568">跨源融合成立</text>
<!-- P2 -->
<circle cx="810" cy="360" fill="#FB923C" r="22"></circle>
<text fill="#141E30" font-size="20" font-weight="700" x="810" y="368">P2</text>
<rect fill="#33251A" height="180" rx="14" stroke="#FB923C" width="280" x="670" y="120"></rect>
<text fill="#FB923C" font-size="22" font-weight="700" x="810" y="162">智能体源 ★</text>
<text fill="#EAF0F6" font-size="18" x="810" y="200">加 ASK 算子</text>
<text fill="#EAF0F6" font-size="18" x="810" y="228">+ Fabric Data Agent</text>
<text fill="#B0BEC5" font-size="16" x="810" y="270">"Agent=源"成立</text>
<!-- P3 -->
<circle cx="1090" cy="360" fill="#A78BFA" r="22"></circle>
<text fill="#141E30" font-size="20" font-weight="700" x="1090" y="368">P3</text>
<rect fill="#251C3A" height="170" rx="14" stroke="#A78BFA" width="280" x="950" y="420"></rect>
<text fill="#A78BFA" font-size="22" font-weight="700" x="1090" y="462">行动</text>
<text fill="#EAF0F6" font-size="18" x="1090" y="500">加 ACT 算子</text>
<text fill="#EAF0F6" font-size="18" x="1090" y="528">+ 动作 Resolver</text>
<text fill="#B0BEC5" font-size="16" x="1090" y="568">分析→行动打通</text>
<!-- P4 -->
<circle cx="1370" cy="360" fill="#34D399" r="22"></circle>
<text fill="#141E30" font-size="20" font-weight="700" x="1370" y="368">P4</text>
<rect fill="#16302A" height="180" rx="14" stroke="#34D399" width="280" x="1230" y="120"></rect>
<text fill="#34D399" font-size="22" font-weight="700" x="1370" y="162">自演化</text>
<text fill="#EAF0F6" font-size="18" x="1370" y="200">从 schema + LLM</text>
<text fill="#EAF0F6" font-size="18" x="1370" y="228">自动扩充本体</text>
<text fill="#B0BEC5" font-size="16" x="1370" y="270">本体建模可规模化</text>
</g>
</svg>