<?xml version="1.0" encoding="UTF-8"?>
<svg viewbox="0 0 1600 718" xmlns="http://www.w3.org/2000/svg"><style>
                text { font-family: -apple-system, BlinkMacSystemFont, 'Segoe UI', sans-serif; }
                text[fill="#7e8fa6"] { fill: #b0bec5; }
            </style>
<defs>
<marker id="ah7" markerheight="13" markerwidth="13" orient="auto" refx="9" refy="5">
<path d="M0,0 L10,5 L0,10 Z" fill="#22D3EE"></path>
</marker>
</defs>
<!-- 前段 -->
<g font-size="21" text-anchor="middle">
<rect fill="#33251A" height="110" rx="14" stroke="#FB923C" width="180" x="50" y="300"></rect>
<text fill="#FB923C" font-weight="700" x="140" y="345">Intent</text>
<text fill="#B0BEC5" font-size="17" x="140" y="378">问 / 编排 / 触发</text>
<rect fill="#1C2A42" height="110" rx="14" stroke="#2E4060" width="180" x="290" y="300"></rect>
<text fill="#EAF0F6" font-weight="700" x="380" y="345">Compiler</text>
<text fill="#B0BEC5" font-size="17" x="380" y="378">→ SQG</text>
<rect fill="#173049" height="110" rx="14" stroke="#4FACFE" width="200" x="530" y="300"></rect>
<text fill="#4FACFE" font-weight="700" x="630" y="345">Planner</text>
<text fill="#B0BEC5" font-size="17" x="630" y="378">竞标路由</text>
</g>
<g fill="none" stroke="#22D3EE" stroke-width="2">
<line marker-end="url(#ah7)" x1="232" x2="286" y1="355" y2="355"></line>
<line marker-end="url(#ah7)" x1="472" x2="526" y1="355" y2="355"></line>
<path d="M732,330 C800,250 830,180 890,170" marker-end="url(#ah7)"></path>
<path d="M732,355 C800,355 830,355 890,355" marker-end="url(#ah7)"></path>
<path d="M732,380 C800,460 830,540 890,548" marker-end="url(#ah7)"></path>
</g>
<!-- 并行 Resolver 三车道 -->
<g font-size="20">
<rect fill="#1C2A42" height="100" rx="14" stroke="#4FACFE" width="360" x="890" y="120"></rect>
<text fill="#4FACFE" font-weight="700" x="915" y="162">fetch</text>
<text fill="#B0BEC5" font-size="18" x="915" y="194">SQL / 文件 / 向量</text>
<rect fill="#33251A" height="100" rx="14" stroke="#FB923C" width="360" x="890" y="305"></rect>
<text fill="#FB923C" font-weight="700" x="915" y="347">ask</text>
<text fill="#B0BEC5" font-size="18" x="915" y="379">Data Agent / MCP</text>
<rect fill="#251C3A" height="100" rx="14" stroke="#A78BFA" width="360" x="890" y="490"></rect>
<text fill="#A78BFA" font-weight="700" x="915" y="532">act</text>
<text fill="#B0BEC5" font-size="18" x="915" y="564">写回 / 触发</text>
</g>
<text fill="#22D3EE" font-size="19" text-anchor="middle" x="1070" y="102">并行 Resolvers</text>
<!-- 汇聚→融合→合成 -->
<g fill="none" stroke="#34D399" stroke-width="2">
<path d="M1250,170 C1310,250 1330,320 1360,345" marker-end="url(#ah7)"></path>
<path d="M1250,355 C1310,355 1330,355 1360,355" marker-end="url(#ah7)"></path>
<path d="M1250,540 C1310,460 1330,390 1360,368" marker-end="url(#ah7)"></path>
</g>
<g font-size="20" text-anchor="middle">
<rect fill="#16302A" height="130" rx="14" stroke="#34D399" width="190" x="1360" y="290"></rect>
<text fill="#34D399" font-weight="700" x="1455" y="335">Federator</text>
<text fill="#B0BEC5" font-size="17" x="1455" y="366">融合</text>
<text fill="#B0BEC5" font-size="17" x="1455" y="392">+ 冲突裁决</text>
</g>
<!-- 底部 Synthesizer -->
<rect fill="#173049" height="90" rx="14" stroke="#4FACFE" width="1020" x="530" y="600"></rect>
<text fill="#4FACFE" font-size="23" font-weight="700" text-anchor="middle" x="1040" y="638">Synthesizer</text>
<text fill="#B0BEC5" font-size="19" text-anchor="middle" x="1040" y="670">答案 / 可视化 / 回执 —— 按 Concept 主键融合，按 信任×时效×精度 裁决</text>
<path d="M1455,420 C1455,520 1300,600 1220,624" fill="none" marker-end="url(#ah7)" stroke="#34D399" stroke-width="2"></path>
</svg>